<svg width="879" height="866" viewBox="0 0 879 866" fill="none" xmlns="http://www.w3.org/2000/svg">
<path d="M217.551 194.004C193.889 179.56 161.821 189.005 144.999 209.578V151.597C169.809 126.945 166.746 75.202 132.579 59.8972C99.4661 76.0239 95.2671 124.74 119.26 150.267V209.365C102.431 188.988 70.4216 179.554 46.8819 194.004C41.4903 231.71 84.7362 262.174 119.26 253.23V313.003H144.999V253.184C179.461 262.234 223.083 231.786 217.551 194.004Z" fill="#B3E59F"/>
<path d="M283.993 508.785H0V646.063H283.993V508.785Z" fill="#FFE09F"/>
<path d="M283.993 646.063H0V779.909H283.993V646.063Z" fill="#FFE09F"/>
<path d="M283.993 508.785H215.354V646.063H283.993V508.785Z" fill="#F6D190"/>
<path d="M283.993 646.063H215.354V779.909H283.993V646.063Z" fill="#F6D190"/>
<path d="M294.162 21.2506C294.162 9.51334 303.675 0 315.411 0H795.555C807.292 0 816.804 9.51334 816.804 21.2506V334.492C816.804 346.228 807.292 355.741 795.555 355.741H315.411C303.675 355.741 294.162 346.228 294.162 334.492V21.2506Z" fill="#857E87"/>
<path d="M795.552 0H726.914C738.651 0 748.162 9.51334 748.162 21.2506V334.492C748.162 346.228 738.651 355.741 726.914 355.741H795.552C807.29 355.741 816.801 346.228 816.801 334.492V21.2506C816.801 9.51334 807.29 0 795.552 0Z" fill="#5D5360"/>
<path d="M609.806 352.311H501.157V428.349H609.806V352.311Z" fill="#DFDDE0"/>
<path d="M609.806 352.311H575.486V428.349H609.806V352.311Z" fill="#C8C5C9"/>
<path d="M294.162 334.492C294.162 346.228 303.675 355.741 315.411 355.741H795.555C807.292 355.741 816.803 346.228 816.803 334.492V283.671H294.162V334.492Z" fill="#F0EEF0"/>
<path d="M748.162 283.672V334.494C748.162 346.23 738.651 355.743 726.914 355.743H795.552C807.29 355.743 816.801 346.23 816.801 334.494V283.672H748.162Z" fill="#DFDDE0"/>
<path d="M205.836 303.566C210.625 303.566 214.508 307.49 214.419 312.278C213.283 373.087 199.178 426.258 129.558 426.258C58.2917 426.258 45.681 373.076 44.6858 312.262C44.6068 307.48 48.4849 303.566 53.269 303.566H205.836Z" fill="#FF8086"/>
<path d="M205.836 303.566H154.356C159.146 303.566 163.029 307.49 162.94 312.28C161.958 364.787 151.275 411.566 103.565 423.37C111.227 425.237 119.829 426.26 129.557 426.26C199.179 426.26 213.283 373.088 214.419 312.28C214.508 307.49 210.625 303.566 205.836 303.566Z" fill="#E5646E"/>
<path d="M865.707 415.016H12.8698C5.76051 415.016 0 420.778 0 427.886V525.087H852.837V852.837C852.837 869.436 878.577 869.436 878.577 852.837V427.886C878.577 420.778 872.816 415.016 865.707 415.016Z" fill="#E2A975"/>
<path d="M865.707 415.016H797.068C804.178 415.016 809.938 420.778 809.938 427.886V499.347V525.087H852.837V852.837C852.837 869.436 878.577 869.436 878.577 852.837V427.886C878.577 420.778 872.816 415.016 865.707 415.016Z" fill="#C38C66"/>
<path d="M283.993 633.193H0V658.933H283.993V633.193Z" fill="#E2A975"/>
<path d="M283.993 633.193H215.354V658.933H283.993V633.193Z" fill="#C38C66"/>
<path d="M0 767.039V792.778V852.299C0 869.124 25.7396 869.747 25.7396 852.837V792.778H258.254V853.258C258.254 869.753 283.993 869.117 283.993 852.837V767.039H0Z" fill="#E2A975"/>
<path d="M215.354 767.039V792.778H258.254V853.102C258.254 869.707 283.993 869.201 283.993 852.837V767.039H215.354Z" fill="#C38C66"/>
<path d="M191.331 592.01H93.5202C76.9216 592.01 76.9216 566.27 93.5202 566.27H191.331C207.929 566.27 207.929 592.01 191.331 592.01Z" fill="#C38C66"/>
<path d="M191.331 725.856H93.5202C76.9216 725.856 76.9216 700.116 93.5202 700.116H191.331C207.929 700.116 207.929 725.856 191.331 725.856Z" fill="#C38C66"/>
<path d="M751.779 133.685V503.476C751.779 503.476 667.696 468.299 667.696 317.294C667.696 166.288 751.779 133.685 751.779 133.685Z" fill="#B3E59F"/>
<path d="M752.499 574.277C751.831 632.813 741.887 669.926 676.275 669.926H398.288C398.288 669.926 387.992 573.831 521.838 573.831C621.364 573.831 751.778 573.831 751.778 573.831" fill="#B3E59F"/>
<path d="M755.027 839.968H590.294V682.795H676.274C705.82 682.795 727.177 675.672 741.57 661.019C766.793 635.34 766.024 592.343 765.051 537.904C764.852 526.829 764.648 133.685 764.648 133.685C764.648 117.086 738.909 117.086 738.909 133.685C738.909 133.685 739.116 527.177 739.315 538.365C740.182 586.771 740.867 625.006 723.208 642.983C713.905 652.453 698.554 657.056 676.274 657.056H398.287C381.688 657.056 381.688 682.795 398.287 682.795H564.554V705.961H513.933C497.334 705.961 497.334 731.7 513.933 731.7H564.554V839.968H399.821C383.222 839.968 383.222 865.707 399.821 865.707H755.027C771.625 865.707 771.625 839.968 755.027 839.968Z" fill="#95D6A4"/>
</svg>
