<svg width="1054" height="204" viewBox="0 0 1054 204" fill="none" xmlns="http://www.w3.org/2000/svg">
<path d="M106.222 203.15H73.6779C70.7904 203.15 68.45 200.848 68.45 198.008V95.15H111.45V198.007C111.45 200.847 109.109 203.15 106.222 203.15Z" fill="#D56723"/>
<path d="M980.316 203H947.773C944.885 203 942.545 200.698 942.545 197.858V95H985.545V197.857C985.545 200.697 983.204 203 980.316 203Z" fill="#D56723"/>
<path d="M68.4523 52.656H985.545V95.147H68.4523V52.656Z" fill="#A95118"/>
<path d="M942.545 95H985.545V113.581H942.545V95Z" fill="#B6591E"/>
<path d="M68.4523 95.147H111.452V113.728H68.4523V95.147Z" fill="#B6591E"/>
<path d="M68.4523 52.656H985.545V71.237H68.4523V52.656Z" fill="#994916"/>
<path d="M1020.62 0H33.3801C14.9454 0 0 7.259 0 16.215V36.441C0 45.396 14.9454 52.656 33.3801 52.656H1020.62C1039.05 52.656 1054 45.396 1054 36.441V16.215C1054 7.259 1039.05 0 1020.62 0Z" fill="#EB966D"/>
<path d="M1020.62 34.075H33.3801C14.9454 34.075 0 26.815 0 17.86V36.441C0 45.396 14.9454 52.656 33.3801 52.656H1020.62C1039.05 52.656 1054 45.396 1054 36.441V17.86C1054 26.815 1039.05 34.075 1020.62 34.075Z" fill="#E8834D"/>
</svg>
