<svg width="299" height="227" viewBox="0 0 299 227" fill="none" xmlns="http://www.w3.org/2000/svg">
<path d="M87.9949 175.979H57.8093C56.5826 175.979 55.412 176.492 54.5805 177.394L28.1794 206.03C25.7669 208.647 24.6397 212.171 25.0865 215.702C25.5333 219.233 27.5025 222.366 30.4906 224.3C32.4757 225.584 34.7494 226.216 37.0179 226.216C39.8438 226.216 42.6597 225.235 44.8901 223.312L90.8618 183.699C92.2525 182.5 92.7514 180.564 92.1119 178.843C91.4731 177.121 89.8306 175.979 87.9949 175.979Z" fill="#78777E"/>
<path d="M270.821 206.03L244.419 177.394C243.588 176.492 242.417 175.979 241.191 175.979H211.005C209.169 175.979 207.527 177.121 206.888 178.842C206.249 180.563 206.748 182.5 208.138 183.698L254.11 223.312C256.341 225.234 259.156 226.215 261.982 226.215C264.25 226.215 266.525 225.583 268.51 224.299C271.497 222.366 273.467 219.232 273.913 215.701C274.36 212.171 273.233 208.647 270.821 206.03Z" fill="#78777E"/>
<path d="M294.608 0H4.39169C1.96572 0 0 1.96572 0 4.39169V180.37C0 182.796 1.96572 184.762 4.39169 184.762H294.608C297.034 184.762 299 182.796 299 180.37V4.39169C299 1.96631 297.034 0 294.608 0Z" fill="#66BAEA"/>
<path d="M261.741 196.181L244.419 177.394C243.588 176.492 242.417 175.979 241.191 175.979H211.005C209.169 175.979 207.527 177.121 206.888 178.842C206.249 180.563 206.748 182.5 208.138 183.698L222.625 196.182H261.741V196.181Z" fill="#67676B"/>
<path d="M76.3751 196.181L90.8618 183.697C92.2525 182.499 92.7514 180.562 92.112 178.841C91.4732 177.12 89.8307 175.979 87.9955 175.979H57.8094C56.5826 175.979 55.4121 176.492 54.5806 177.393L37.2592 196.181H76.3751Z" fill="#67676B"/>
<path d="M294.608 0H278.798V184.762H294.608C297.034 184.762 299 182.796 299 180.37V4.39169C299 1.96631 297.034 0 294.608 0Z" fill="#3AAAE4"/>
<path d="M0 154.212V180.371C0 182.797 1.96572 184.763 4.39169 184.763H294.608C297.034 184.763 299 182.797 299 180.371V154.212H0Z" fill="#E0E0E0"/>
<path d="M278.798 184.763H294.608C297.034 184.763 299 182.797 299 180.371V154.212H278.798V184.763Z" fill="#C4C4C4"/>
</svg>
